PathFileType	4	(X/Y/Z)	C:/Users/opensim2020/Desktop/walking_exp_matlab/subject03_walking05_straight_03.trc	
DataRate	CameraRate	NumFrames	NumMarkers	Units	OrigDataRate	OrigDataStartFrame	OrigNumFrames	
100.00	100.00	8	45	mm	100.00	2111	293	
Frame#	Time	LFHD			RFHD			LBHD			RBHD			C7			T10			CLAV			STRN			RBAK			LSHO			LUPA			LELB			LFRM			LWRA			LWRB			LFIN			RSHO			RUPA			RELB			RFRM			RWRA			RWRB			RFIN			LASI			RASI			LPSI			RPSI			LTHI			LKNE			LTIB			LANK			LHEE			LTOE			RTHI			RKNE			RTIB			RANK			RHEE			RTOE			*39			*40			*41			*42			*43			*44			
		X1	Y1	Z1	X2	Y2	Z2	X3	Y3	Z3	X4	Y4	Z4	X5	Y5	Z5	X6	Y6	Z6	X7	Y7	Z7	X8	Y8	Z8	X9	Y9	Z9	X10	Y10	Z10	X11	Y11	Z11	X12	Y12	Z12	X13	Y13	Z13	X14	Y14	Z14	X15	Y15	Z15	X16	Y16	Z16	X17	Y17	Z17	X18	Y18	Z18	X19	Y19	Z19	X20	Y20	Z20	X21	Y21	Z21	X22	Y22	Z22	X23	Y23	Z23	X24	Y24	Z24	X25	Y25	Z25	X26	Y26	Z26	X27	Y27	Z27	X28	Y28	Z28	X29	Y29	Z29	X30	Y30	Z30	X31	Y31	Z31	X32	Y32	Z32	X33	Y33	Z33	X34	Y34	Z34	X35	Y35	Z35	X36	Y36	Z36	X37	Y37	Z37	X38	Y38	Z38	X39	Y39	Z39	X40	Y40	Z40	X41	Y41	Z41	X42	Y42	Z42	X43	Y43	Z43	X44	Y44	Z44	X45	Y45	Z45	

1	0.000	-1097.77515	-1374.86230	1618.49854	-968.08386	-1404.91064	1624.08093	-1119.19910	-1494.59998	1558.35498	-990.84229	-1519.53589	1564.52588	-1077.31909	-1529.06006	1417.82935	-1086.66003	-1576.86304	1106.29919	-1037.97864	-1412.47119	1338.51257	-1031.92883	-1378.82422	1170.20215	-1000.57245	-1614.32141	1248.57434	-1198.54590	-1405.27576	1376.46399	-1275.94983	-1354.72400	1193.69287	-1290.32043	-1308.38025	1080.87549	-1282.24902	-1240.22241	971.72070	-1246.37085	-1187.03003	866.80042	-1300.57715	-1196.86694	867.17102	-1288.61597	-1149.33276	799.90527	-899.07507	-1504.18225	1367.03821	-822.91815	-1558.38818	1153.30286	-797.24774	-1569.72070	1043.65283	-779.04962	-1586.21545	908.62292	-789.34827	-1567.41248	805.03583	-765.38629	-1614.80920	811.95532	-760.67432	-1609.48450	736.99457	-1148.96997	-1404.52759	920.85455	-919.82684	-1460.43103	943.47980	-1137.45276	-1571.24707	968.92786	-994.51514	-1604.99060	982.81506	-1206.83508	-1502.17273	629.55115	-1170.63147	-1534.72900	457.02002	-1195.38538	-1614.23645	277.13022	-1171.69873	-1691.95862	75.37955	-1139.81897	-1717.56470	29.98604	-1129.33105	-1525.51624	28.39567	-876.69873	-1478.17932	653.51141	-904.94995	-1430.35400	479.79663	-912.45197	-1494.39648	295.02704	-966.50116	-1538.70850	85.31980	-1028.44214	-1575.25989	54.88400	-950.05438	-1407.43677	41.14726																		 
2	0.010	-1098.91296	-1371.15881	1618.15503	-969.30432	-1401.52979	1623.82019	-1120.56104	-1491.00781	1557.95496	-991.88678	-1516.83435	1564.16028	-1078.35742	-1525.26758	1417.56274	-1087.72339	-1573.76233	1106.22034	-1039.13220	-1408.70471	1338.26660	-1033.49133	-1375.44287	1169.68140	-1001.66626	-1610.56555	1248.43616	-1199.55603	-1401.56140	1376.17041	-1275.85254	-1350.05273	1193.30530	-1290.04871	-1303.53748	1080.93652	-1279.92273	-1233.36584	972.92444	-1242.22766	-1178.34851	870.09546	-1296.33154	-1188.17419	869.02039	-1282.76086	-1139.25439	802.88184	-900.11536	-1500.32715	1366.83301	-824.97119	-1557.09949	1153.55664	-800.00305	-1570.17627	1043.90088	-782.50812	-1588.24097	908.99109	-792.92889	-1570.21106	805.23254	-769.60046	-1617.88782	812.49597	-765.38879	-1613.49792	737.52301	-1150.58838	-1402.12524	920.39404	-921.29364	-1456.94067	943.35492	-1138.28613	-1568.86060	968.65784	-995.45996	-1601.43127	982.45605	-1207.71033	-1501.11279	629.23322	-1171.03333	-1534.20117	456.82407	-1195.06982	-1615.81763	276.44141	-1171.29089	-1695.18970	75.68729	-1139.82581	-1717.59937	30.15958	-1129.38440	-1525.60620	28.30186	-877.39282	-1473.42725	653.78387	-905.93024	-1424.81592	480.36517	-912.27271	-1486.10144	294.72339	-965.23920	-1527.18225	84.05106	-1026.71741	-1563.24902	53.45070	-949.65771	-1395.03137	41.03118																		 
3	0.020	-1099.49243	-1367.21301	1617.59375	-970.48920	-1397.81335	1623.57642	-1121.67969	-1487.17517	1557.44385	-993.07007	-1513.18994	1563.76184	-1079.28430	-1521.38403	1417.29565	-1088.67773	-1570.62463	1106.10510	-1040.35791	-1404.80579	1337.63232	-1037.71643	-1374.16577	1170.08032	-1002.67950	-1606.54688	1248.22424	-1200.51013	-1397.74731	1375.78564	-1275.93469	-1345.73840	1192.98230	-1289.27759	-1298.70557	1080.59058	-1277.66931	-1226.95471	974.03375	-1237.91187	-1170.10986	873.21924	-1292.05664	-1179.92822	870.79053	-1276.94617	-1129.94214	805.87732	-900.95313	-1496.31189	1366.48828	-827.21655	-1555.32874	1153.57300	-802.71918	-1570.26978	1044.15186	-785.95398	-1589.77917	909.26898	-796.64575	-1572.52173	805.43024	-773.95361	-1620.56995	812.99469	-770.11615	-1616.56873	737.71124	-1152.62061	-1399.24585	919.65277	-922.36749	-1452.84973	943.28290	-1139.12988	-1566.25403	968.30225	-996.13721	-1598.18774	982.28778	-1208.52881	-1499.77246	629.02942	-1171.91748	-1533.16602	456.58154	-1195.33606	-1615.62256	276.39755	-1171.46484	-1696.64392	76.64004	-1139.92310	-1717.42126	30.17025	-1129.39526	-1525.64526	28.21187	-878.02063	-1468.65198	653.99634	-906.75574	-1419.13806	480.98010	-912.01563	-1477.49866	294.37921	-964.22375	-1515.03918	82.66692	-1025.10071	-1551.41016	51.84552	-949.36798	-1382.27979	40.82798																		 
4	0.030	-1100.69800	-1363.43506	1617.20117	-971.44934	-1394.18799	1623.26831	-1122.72253	-1483.22156	1556.89661	-994.16577	-1509.33215	1563.32678	-1080.09485	-1517.31152	1416.97546	-1089.48657	-1567.40576	1105.93848	-1041.10950	-1400.74524	1337.17126	-1039.47083	-1371.10901	1169.45898	-1003.53888	-1602.67358	1247.89319	-1201.35925	-1393.79370	1375.34119	-1276.25317	-1341.65295	1192.67297	-1288.77649	-1294.26379	1080.38489	-1275.62048	-1221.20667	975.42352	-1233.63062	-1162.25159	876.29547	-1287.72778	-1171.99329	872.44739	-1271.00940	-1120.90991	808.75653	-901.74396	-1492.29810	1366.14282	-829.18945	-1553.46301	1153.67175	-805.44525	-1569.85437	1044.17224	-789.45477	-1590.79199	909.45313	-800.33014	-1574.22131	805.45056	-778.42230	-1622.48047	813.25244	-774.64923	-1619.46765	738.15143	-1153.53198	-1397.18823	919.39154	-923.73560	-1449.38440	942.92902	-1139.78125	-1563.78723	968.04999	-996.70935	-1594.95728	982.11603	-1209.34814	-1498.54858	628.65436	-1172.91235	-1534.10315	455.83386	-1195.60547	-1615.12122	276.41724	-1171.64233	-1697.79199	77.65633	-1139.30103	-1717.71130	30.76770	-1129.45911	-1525.58752	28.16134	-878.57001	-1463.86438	654.14423	-907.49597	-1413.29382	481.56113	-911.52661	-1468.56677	294.08374	-962.60083	-1502.53235	81.70148	-1023.34534	-1539.09338	50.27545	-949.11462	-1369.13452	40.73220																		 
5	0.040	-1101.89014	-1359.64136	1616.89246	-972.39575	-1390.25232	1622.87537	-1123.62622	-1479.19031	1556.30505	-995.13660	-1505.31030	1562.77795	-1080.78491	-1513.16162	1416.60266	-1090.14063	-1564.12390	1105.79333	-1041.48926	-1396.57373	1336.63696	-1036.29504	-1363.81396	1168.28979	-1004.26147	-1598.57874	1247.68738	-1202.18262	-1389.75317	1374.89453	-1276.29578	-1337.55676	1192.03296	-1288.28052	-1289.94275	1079.92810	-1273.36914	-1215.29248	976.20135	-1229.42981	-1154.81909	879.20197	-1283.39111	-1164.52161	873.99652	-1264.93640	-1112.11804	811.48804	-902.38989	-1488.11157	1365.74683	-831.07556	-1551.34839	1153.63159	-808.06354	-1568.87012	1044.10168	-792.98969	-1591.25427	909.49127	-804.47784	-1575.38904	805.33289	-782.59241	-1623.87085	813.61560	-779.31177	-1621.20679	738.32739	-1155.07971	-1394.31982	918.95837	-925.19409	-1445.74915	942.63989	-1140.42017	-1560.99011	967.57489	-997.26886	-1591.39697	981.72168	-1210.14832	-1496.97925	628.26404	-1173.19128	-1531.72131	456.16269	-1195.89856	-1614.59009	276.35699	-1171.84314	-1698.91077	78.59266	-1139.30933	-1717.62817	30.90954	-1129.49048	-1525.86365	28.08151	-879.10394	-1459.07874	654.18982	-908.12085	-1407.46057	482.15338	-910.99628	-1459.47388	293.74420	-960.79749	-1490.05762	80.73653	-1021.37616	-1526.21594	48.60091	-949.07220	-1355.64856	40.80878																		 
6	0.050	-1102.58850	-1355.54285	1616.32678	-973.12207	-1386.33984	1622.52490	-1124.48132	-1475.08081	1555.67688	-995.93494	-1501.25366	1562.22168	-1081.46838	-1508.98438	1416.38660	-1090.69702	-1560.64282	1105.57410	-1042.78040	-1392.48669	1336.08313	-1037.85938	-1360.82788	1167.11023	-1004.85797	-1594.34692	1247.41907	-1202.91235	-1385.65869	1374.32214	-1276.38708	-1333.57678	1191.30823	-1287.63330	-1285.79382	1079.32495	-1270.84570	-1209.60742	976.76825	-1225.36877	-1147.89148	882.06866	-1279.01062	-1157.32898	875.39459	-1259.15051	-1104.14331	814.20068	-902.92670	-1483.71008	1365.30249	-832.76764	-1548.97620	1153.55762	-810.74561	-1567.84509	1044.00317	-796.47766	-1591.20776	909.46130	-808.29181	-1576.01074	805.40747	-786.98254	-1624.54309	813.66107	-783.97266	-1622.53418	738.36200	-1156.38184	-1391.73596	918.34338	-926.39246	-1441.84680	942.21790	-1140.96448	-1558.15259	967.15332	-997.71014	-1587.79858	981.29938	-1210.89648	-1495.22632	627.82043	-1174.71143	-1531.89294	455.46658	-1196.21301	-1613.90430	276.31671	-1172.06555	-1699.87427	79.54901	-1139.08691	-1717.78613	31.33470	-1129.63123	-1525.88953	28.01336	-879.72595	-1454.33508	654.24316	-908.66486	-1401.55005	482.68307	-910.42102	-1450.13135	293.44592	-959.38824	-1476.78394	79.39989	-1019.34637	-1513.17090	47.02061	-949.04822	-1341.77551	41.02582																		 
7	0.060	-1103.15088	-1351.30872	1615.71094	-973.81152	-1382.16223	1621.93335	-1125.13513	-1470.77246	1554.95544	-996.59033	-1497.08398	1561.54895	-1081.85925	-1504.55298	1415.84082	-1091.13269	-1557.08203	1105.37244	-1043.45007	-1388.13586	1335.44019	-1042.22620	-1359.20850	1167.15869	-1005.25970	-1590.05640	1247.16382	-1203.51770	-1381.40833	1373.65991	-1276.63354	-1329.89978	1190.64160	-1286.73877	-1281.77466	1078.56384	-1268.45166	-1204.41309	977.45966	-1221.18579	-1141.18274	884.68390	-1274.74158	-1150.60669	876.66388	-1253.15369	-1096.24768	816.62384	-903.35059	-1479.11536	1364.67786	-834.37769	-1546.14648	1153.31628	-813.20221	-1565.98645	1043.71997	-799.91766	-1590.51550	909.26270	-812.23779	-1576.03992	805.23285	-791.11389	-1624.49292	813.63440	-788.62061	-1623.02795	738.49469	-1157.67834	-1388.84241	917.81647	-927.50470	-1437.81750	941.69653	-1141.35791	-1555.31726	966.75964	-998.03131	-1584.14978	980.89539	-1211.62341	-1493.33911	627.35175	-1174.14343	-1529.88440	454.72717	-1196.53906	-1613.06116	276.26938	-1172.29932	-1700.68054	80.49825	-1134.47253	-1716.54614	34.12912	-1129.78040	-1525.73755	27.99158	-879.35199	-1449.86938	654.17114	-909.09967	-1395.65649	483.14655	-909.79810	-1440.56738	293.09143	-957.90173	-1463.63757	78.36587	-1017.11261	-1499.76489	45.48744	-949.06616	-1327.57825	41.28019																		 
8	0.070	-1103.73816	-1346.97217	1615.20459	-974.38885	-1377.89673	1621.42578	-1125.72168	-1466.38110	1554.27759	-997.22455	-1492.75134	1560.95532	-1082.14600	-1500.15759	1415.37842	-1091.50098	-1553.33423	1105.13831	-1043.77881	-1383.66235	1334.72864	-1041.82153	-1354.00781	1165.14661	-1005.56952	-1585.60144	1246.87073	-1204.01917	-1377.17004	1372.99597	-1276.67407	-1326.25952	1189.75293	-1286.02185	-1277.88269	1077.71521	-1266.17017	-1199.49548	977.94891	-1216.97400	-1135.01062	886.96490	-1270.40906	-1144.18860	877.74969	-1247.13684	-1088.85596	818.88812	-903.60559	-1474.46069	1364.15112	-835.97754	-1542.79028	1152.88745	-815.55219	-1563.85571	1043.38745	-803.28430	-1589.27417	908.96588	-816.49359	-1575.36060	804.91534	-795.30865	-1623.84387	813.44775	-793.40417	-1622.60291	738.23889	-1159.53748	-1385.74243	917.04370	-928.49628	-1433.70520	941.07269	-1141.80176	-1552.12537	966.20862	-998.30804	-1580.30444	980.41418	-1212.21826	-1491.11365	626.92151	-1175.07263	-1527.88379	454.33743	-1196.84314	-1612.24829	276.22885	-1172.51111	-1701.51733	81.45431	-1134.24402	-1716.40564	34.78675	-1129.93066	-1525.67188	27.88272	-879.63867	-1445.02893	654.08521	-909.54773	-1389.81165	483.55237	-909.10272	-1430.91895	292.78473	-956.00519	-1449.90527	77.34008	-1014.93018	-1486.06689	44.05798	-948.98407	-1313.01660	41.59066																		 
